<mxfile host="app.diagrams.net" modified="2021-03-04T10:02:19.688Z" agent="5.0 (Windows NT 10.0; Win64; x64) AppleWebKit/537.36 (KHTML, like Gecko) Chrome/88.0.4324.190 Safari/537.36" etag="LRVK9y9QD3tiZysHMEqu" version="14.2.4" type="github">
  <diagram id="CDSgEW79qF3VZ4AY6NT8" name="Page-1">
    <mxGraphModel dx="868" dy="425" grid="1" gridSize="10" guides="1" tooltips="1" connect="1" arrows="1" fold="1" page="1" pageScale="1" pageWidth="850" pageHeight="1100" math="0" shadow="0">
      <root>
        <mxCell id="0" />
        <mxCell id="1" parent="0" />
        <mxCell id="m_G5GsiOTefLBHIZtIXy-1" value="" style="rounded=0;whiteSpace=wrap;html=1;" vertex="1" parent="1">
          <mxGeometry x="160" y="120" width="80" height="190" as="geometry" />
        </mxCell>
        <mxCell id="m_G5GsiOTefLBHIZtIXy-2" value="" style="rounded=0;whiteSpace=wrap;html=1;" vertex="1" parent="1">
          <mxGeometry x="540" y="120" width="80" height="190" as="geometry" />
        </mxCell>
        <mxCell id="m_G5GsiOTefLBHIZtIXy-3" value="" style="rounded=0;whiteSpace=wrap;html=1;" vertex="1" parent="1">
          <mxGeometry x="340" y="120" width="80" height="190" as="geometry" />
        </mxCell>
        <mxCell id="m_G5GsiOTefLBHIZtIXy-4" value="&amp;nbsp;WebHook" style="text;html=1;strokeColor=none;fillColor=none;align=center;verticalAlign=middle;whiteSpace=wrap;rounded=0;" vertex="1" parent="1">
          <mxGeometry x="360" y="80" width="40" height="20" as="geometry" />
        </mxCell>
        <mxCell id="m_G5GsiOTefLBHIZtIXy-5" value="SFM" style="text;html=1;strokeColor=none;fillColor=none;align=center;verticalAlign=middle;whiteSpace=wrap;rounded=0;" vertex="1" parent="1">
          <mxGeometry x="560" y="80" width="40" height="20" as="geometry" />
        </mxCell>
        <mxCell id="m_G5GsiOTefLBHIZtIXy-6" value="CBS" style="text;html=1;strokeColor=none;fillColor=none;align=center;verticalAlign=middle;whiteSpace=wrap;rounded=0;" vertex="1" parent="1">
          <mxGeometry x="180" y="80" width="40" height="20" as="geometry" />
        </mxCell>
        <mxCell id="m_G5GsiOTefLBHIZtIXy-7" value="Actor" style="shape=umlActor;verticalLabelPosition=bottom;verticalAlign=top;html=1;outlineConnect=0;" vertex="1" parent="1">
          <mxGeometry x="30" y="150" width="30" height="60" as="geometry" />
        </mxCell>
        <mxCell id="m_G5GsiOTefLBHIZtIXy-8" value="" style="endArrow=classic;html=1;" edge="1" parent="1" source="m_G5GsiOTefLBHIZtIXy-7">
          <mxGeometry relative="1" as="geometry">
            <mxPoint x="60" y="180" as="sourcePoint" />
            <mxPoint x="160" y="180" as="targetPoint" />
          </mxGeometry>
        </mxCell>
        <mxCell id="m_G5GsiOTefLBHIZtIXy-9" value="Close a/c" style="edgeLabel;resizable=0;html=1;align=center;verticalAlign=middle;" connectable="0" vertex="1" parent="m_G5GsiOTefLBHIZtIXy-8">
          <mxGeometry relative="1" as="geometry" />
        </mxCell>
        <mxCell id="m_G5GsiOTefLBHIZtIXy-10" value="" style="endArrow=classic;html=1;" edge="1" parent="1">
          <mxGeometry relative="1" as="geometry">
            <mxPoint x="240" y="179.5" as="sourcePoint" />
            <mxPoint x="340" y="179.5" as="targetPoint" />
          </mxGeometry>
        </mxCell>
        <mxCell id="m_G5GsiOTefLBHIZtIXy-11" value="Send A/C details" style="edgeLabel;resizable=0;html=1;align=center;verticalAlign=middle;" connectable="0" vertex="1" parent="m_G5GsiOTefLBHIZtIXy-10">
          <mxGeometry relative="1" as="geometry" />
        </mxCell>
        <mxCell id="m_G5GsiOTefLBHIZtIXy-12" value="" style="rounded=0;whiteSpace=wrap;html=1;" vertex="1" parent="1">
          <mxGeometry x="720" y="120" width="80" height="190" as="geometry" />
        </mxCell>
        <mxCell id="m_G5GsiOTefLBHIZtIXy-13" value="Instrument Vault" style="text;html=1;strokeColor=none;fillColor=none;align=center;verticalAlign=middle;whiteSpace=wrap;rounded=0;" vertex="1" parent="1">
          <mxGeometry x="720" y="80" width="40" height="20" as="geometry" />
        </mxCell>
        <mxCell id="m_G5GsiOTefLBHIZtIXy-14" value="" style="outlineConnect=0;dashed=0;verticalLabelPosition=bottom;verticalAlign=top;align=center;html=1;shape=mxgraph.aws3.queue;fillColor=#D9A741;gradientColor=none;" vertex="1" parent="1">
          <mxGeometry x="351" y="156" width="58" height="48" as="geometry" />
        </mxCell>
        <mxCell id="m_G5GsiOTefLBHIZtIXy-15" value="events in Queue" style="text;html=1;strokeColor=none;fillColor=none;align=center;verticalAlign=middle;whiteSpace=wrap;rounded=0;" vertex="1" parent="1">
          <mxGeometry x="360" y="220" width="40" height="20" as="geometry" />
        </mxCell>
        <mxCell id="m_G5GsiOTefLBHIZtIXy-16" value="" style="endArrow=classic;html=1;exitX=1;exitY=0.574;exitDx=0;exitDy=0;exitPerimeter=0;" edge="1" parent="1" source="m_G5GsiOTefLBHIZtIXy-3">
          <mxGeometry relative="1" as="geometry">
            <mxPoint x="420" y="180" as="sourcePoint" />
            <mxPoint x="541" y="229" as="targetPoint" />
            <Array as="points" />
          </mxGeometry>
        </mxCell>
        <mxCell id="m_G5GsiOTefLBHIZtIXy-17" value="Process each event" style="edgeLabel;resizable=0;html=1;align=center;verticalAlign=middle;" connectable="0" vertex="1" parent="m_G5GsiOTefLBHIZtIXy-16">
          <mxGeometry relative="1" as="geometry">
            <mxPoint y="-9.029999999999998" as="offset" />
          </mxGeometry>
        </mxCell>
        <mxCell id="m_G5GsiOTefLBHIZtIXy-18" value="" style="endArrow=classic;html=1;" edge="1" parent="1">
          <mxGeometry relative="1" as="geometry">
            <mxPoint x="340" y="210" as="sourcePoint" />
            <mxPoint x="240" y="210" as="targetPoint" />
          </mxGeometry>
        </mxCell>
        <mxCell id="m_G5GsiOTefLBHIZtIXy-19" value="acknowledge" style="edgeLabel;resizable=0;html=1;align=center;verticalAlign=middle;" connectable="0" vertex="1" parent="m_G5GsiOTefLBHIZtIXy-18">
          <mxGeometry relative="1" as="geometry" />
        </mxCell>
        <mxCell id="m_G5GsiOTefLBHIZtIXy-20" value="" style="endArrow=classic;html=1;" edge="1" parent="1">
          <mxGeometry relative="1" as="geometry">
            <mxPoint x="620" y="240" as="sourcePoint" />
            <mxPoint x="720" y="240" as="targetPoint" />
          </mxGeometry>
        </mxCell>
        <mxCell id="m_G5GsiOTefLBHIZtIXy-21" value="delete instrument" style="edgeLabel;resizable=0;html=1;align=center;verticalAlign=middle;" connectable="0" vertex="1" parent="m_G5GsiOTefLBHIZtIXy-20">
          <mxGeometry relative="1" as="geometry" />
        </mxCell>
        <mxCell id="m_G5GsiOTefLBHIZtIXy-22" value="" style="endArrow=classic;html=1;" edge="1" parent="1">
          <mxGeometry relative="1" as="geometry">
            <mxPoint x="720" y="270" as="sourcePoint" />
            <mxPoint x="620" y="270" as="targetPoint" />
          </mxGeometry>
        </mxCell>
        <mxCell id="m_G5GsiOTefLBHIZtIXy-23" value="Respond to SFM" style="edgeLabel;resizable=0;html=1;align=center;verticalAlign=middle;" connectable="0" vertex="1" parent="m_G5GsiOTefLBHIZtIXy-22">
          <mxGeometry relative="1" as="geometry" />
        </mxCell>
      </root>
    </mxGraphModel>
  </diagram>
</mxfile>
